<svg xmlns="http://www.w3.org/2000/svg" fill="none" viewBox="0 0 24 24" 
     stroke="white" stroke-width="2" stroke-linecap="round" stroke-linejoin="round"
     width="24" height="24">
  <path d="M2.25 15.75l5.159-5.159a2.25 2.25 0 013.182 0l5.159 5.159m-1.5-1.5l1.409-1.409a2.25 2.25 0 013.182 0l2.909 2.909M3.75 21h16.5a1.5 1.5 0 001.5-1.5V6a1.5 1.5 0 00-1.5-1.5H3.75A1.5 1.5 0 002.25 6v12A1.5 1.5 0 003.75 21zM12.375 8.25h.008v.008h-.008V8.25zM12.75 8.25a.375.375 0 11-.75 0 .375.375 0 01.75 0z"/>
</svg>

